:FULLY-SPECIFIED
:DEGREES
1659
root 0.787464 15.6519 -1.9439 4000.01 -96.2347 -3999.01
lowerback 6.71123 0.636125 -8.72715
upperback -1.57389 0.105483 0.520054
thorax -5.46298 0.34459 5.45027
lowerneck -17.0868 1.39274 1.39801
upperneck 22.4289 2.12301 -3.13278
head 10.0135 0.636877 -1.06422
rclavicle -7.95139e-016 1.13307e-014
rhumerus -42.0278 -26.6309 -68.1021
rradius 11.7046
rwrist 29.1498
rhand -28.2165 -18.3187
rfingers 7.12502
rthumb -1.59506 -48.2925
lclavicle -7.95139e-016 1.13307e-014
lhumerus -17.4052 -10.5977 91.6044
lradius 31.2535
lwrist 10.5296
lhand -33.2495 15.6152
lfingers 7.12502
lthumb -6.45511 45.4968
rfemur -29.2866 -0.361669 15.7512
rtibia 53.9483
rfoot -16.1944 -23.5845
rtoes -9.94277
lfemur -3.64584 -4.68883 -30.7955
ltibia 20.266
lfoot -13.9955 6.9448
ltoes -6.46471
1660
root 0.808364 15.6481 -1.94716 4001.19 -96.1745 -3999.95
lowerback 6.61526 0.637438 -8.81748
upperback -1.64622 0.104398 0.506601
thorax -5.48607 0.350088 5.487
lowerneck -17.0617 1.36094 1.39307
upperneck 22.368 2.06458 -3.06951
head 9.9845 0.618807 -1.04852
rclavicle 1.59028e-014 7.95139e-015
rhumerus -41.834 -27.493 -67.7719
rradius 11.5175
rwrist 30.1567
rhand -28.2988 -18.0371
rfingers 7.12502
rthumb -1.6745 -48.0102
lclavicle 1.59028e-014 7.95139e-015
lhumerus -17.3519 -10.7559 91.5184
lradius 31.5273
lwrist 10.4468
lhand -33.2597 15.4575
lfingers 7.12502
lthumb -6.46489 45.3388
rfemur -29.6915 0.0363368 15.8671
rtibia 51.6023
rfoot -16.1459 -23.75
rtoes -10.508
lfemur -3.1528 -4.8205 -30.9091
ltibia 19.8749
lfoot -14.1329 7.0536
ltoes -7.0123
1661
root 0.826997 15.6505 -1.95252 4002.73 -96.1083 -4001.27
lowerback 6.48018 0.629711 -8.96424
upperback -1.6847 0.0924118 0.500208
thorax -5.44968 0.348386 5.56423
lowerneck -17.0556 1.31195 1.37963
upperneck 22.2916 1.98871 -3.02178
head 9.95334 0.590341 -1.03902
rclavicle -2.38542e-015 1.49089e-014
rhumerus -41.6099 -28.5508 -67.3344
rradius 11.2738
rwrist 31.4859
rhand -28.1853 -17.9897
rfingers 7.12502
rthumb -1.56485 -47.9637
lclavicle -2.38542e-015 1.49089e-014
lhumerus -17.3445 -11.0706 91.4772
lradius 31.9004
lwrist 10.6705
lhand -33.4201 15.4592
lfingers 7.12502
lthumb -6.61977 45.3357
rfemur -30.0143 0.357147 15.9118
rtibia 49.2177
rfoot -16.1047 -23.6423
rtoes -10.3847
lfemur -2.5085 -4.72847 -31.0037
ltibia 19.2613
lfoot -14.1703 6.87581
ltoes -7.0365
1662
root 0.846747 15.6557 -1.95598 4003.72 -96.073 -4002.03
lowerback 6.39686 0.640795 -9.03529
upperback -1.75516 0.104177 0.472629
thorax -5.47989 0.359585 5.57359
lowerneck -17.0181 1.27643 1.4209
upperneck 22.2055 1.92083 -2.99277
head 9.91386 0.568234 -1.0442
rclavicle -3.97569e-015 7.35503e-015
rhumerus -41.4412 -29.729 -66.8579
rradius 10.9873
rwrist 33.1187
rhand -28.3945 -17.8858
rfingers 7.12502
rthumb -1.76692 -47.8582
lclavicle -3.97569e-015 7.35503e-015
lhumerus -17.4365 -11.281 91.4012
lradius 32.2632
lwrist 10.6956
lhand -33.4003 15.4874
lfingers 7.12502
lthumb -6.60064 45.3646
rfemur -30.2979 0.828527 15.9463
rtibia 46.7664
rfoot -16.3418 -23.3587
rtoes -9.65783
lfemur -1.84705 -4.64376 -31.0756
ltibia 18.5866
lfoot -14.1962 6.74816
ltoes -7.52432
1663
root 0.865781 15.6571 -1.96327 4004.77 -96.0769 -4002.87
lowerback 6.29445 0.660741 -9.15911
upperback -1.79629 0.12622 0.437677
thorax -5.47031 0.374595 5.60373
lowerneck -17.0619 1.24238 1.45371
upperneck 22.1593 1.86011 -2.97132
head 9.90411 0.546833 -1.04974
rclavicle -3.97569e-015 -5.76476e-015
rhumerus -41.1585 -30.8249 -66.5417
rradius 10.798
rwrist 34.2553
rhand -28.4467 -17.703
rfingers 7.12502
rthumb -1.81731 -47.675
lclavicle -3.97569e-015 -5.76476e-015
lhumerus -17.5287 -11.445 91.3246
lradius 32.5828
lwrist 10.4437
lhand -33.3272 15.6474
lfingers 7.12502
lthumb -6.53008 45.5267
rfemur -30.4855 1.34635 15.9141
rtibia 44.2801
rfoot -16.5346 -22.7556
rtoes -9.3481
lfemur -1.07091 -4.5646 -31.16
ltibia 17.7522
lfoot -14.1518 6.63139
ltoes -7.66986
1664
root 0.884672 15.6608 -1.97116 4006.01 -96.1356 -4003.86
lowerback 6.12531 0.685949 -9.34673
upperback -1.84006 0.157278 0.407906
thorax -5.42794 0.394795 5.67438
lowerneck -17.0568 1.20665 1.4286
upperneck 22.0547 1.80717 -2.92585
head 9.86381 0.528113 -1.03571
rclavicle 3.18055e-015 3.57812e-015
rhumerus -40.5686 -31.5295 -66.6974
rradius 10.7081
rwrist 34.6049
rhand -28.4038 -17.8619
rfingers 7.12502
rthumb -1.77587 -47.8343
lclavicle 3.18055e-015 3.57812e-015
lhumerus -17.6857 -11.6282 91.3085
lradius 32.9446
lwrist 10.477
lhand -33.4032 15.6098
lfingers 7.12502
lthumb -6.60344 45.4868
rfemur -30.7148 1.83468 15.833
rtibia 41.7514
rfoot -16.2402 -22.2571
rtoes -10.0963
lfemur -0.283729 -4.46991 -31.2834
ltibia 16.7813
lfoot -14.0414 6.48172
ltoes -8.03188
1665
root 0.903556 15.6667 -1.97748 4007.43 -96.1375 -4005.02
lowerback 6.01346 0.690341 -9.44661
upperback -1.89963 0.160631 0.365215
thorax -5.42933 0.400722 5.68482
lowerneck -17.0539 1.16273 1.43532
upperneck 21.9685 1.7439 -2.92202
head 9.831 0.501894 -1.04317
rclavicle -9.54166e-015 3.97569e-015
rhumerus -40.3513 -32.8085 -66.2775
rradius 10.4319
rwrist 36.739
rhand -28.8591 -17.7059
rfingers 7.12502
rthumb -2.21563 -47.6741
lclavicle -9.54166e-015 3.97569e-015
lhumerus -17.8706 -11.7102 91.2681
lradius 33.2372
lwrist 10.4698
lhand -33.4339 15.4834
lfingers 7.12502
lthumb -6.63312 45.3595
rfemur -30.8244 2.31061 15.7345
rtibia 39.1758
rfoot -16.0341 -21.5957
rtoes -11.0186
lfemur 0.569975 -4.36771 -31.3788
ltibia 15.7333
lfoot -13.7886 6.29387
ltoes -8.54201
1666
root 0.918233 15.6749 -1.98449 4008.58 -96.2013 -4005.92
lowerback 5.84223 0.723877 -9.56785
upperback -1.96396 0.206881 0.314421
thorax -5.40952 0.427456 5.69401
lowerneck -17.0467 1.10355 1.4336
upperneck 21.9076 1.65999 -2.91234
head 9.80577 0.465548 -1.05015
rclavicle -1.19271e-014 -3.02153e-014
rhumerus -39.7812 -33.3545 -66.5883
rradius 10.4007
rwrist 37.1824
rhand -29.0683 -17.6503
rfingers 7.12502
rthumb -2.41771 -47.6163
lclavicle -1.19271e-014 -3.02153e-014
lhumerus -18.1404 -11.987 91.3079
lradius 33.4654
lwrist 10.6274
lhand -33.5279 15.449
lfingers 7.12502
lthumb -6.72385 45.3222
rfemur -30.9106 2.87676 15.5618
rtibia 36.5836
rfoot -16.0668 -20.8691
rtoes -11.5348
lfemur 1.5077 -4.41218 -31.5304
ltibia 14.5402
lfoot -13.5833 6.33973
ltoes -9.16331
1667
root 0.93457 15.681 -1.99357 4009.36 -96.1845 -4006.46
lowerback 5.71421 0.738161 -9.58283
upperback -2.03391 0.231863 0.271527
thorax -5.41523 0.441787 5.65396
lowerneck -16.9914 1.05982 1.43955
upperneck 21.8063 1.59524 -2.9022
head 9.7578 0.439539 -1.05539
rclavicle -7.55382e-015 3.77691e-015
rhumerus -38.8329 -33.0713 -67.6821
rradius 10.5411
rwrist 36.4864
rhand -29.1526 -17.7985
rfingers 7.12502
rthumb -2.49906 -47.7636
lclavicle -7.55382e-015 3.77691e-015
lhumerus -18.4538 -12.1104 91.3013
lradius 33.7279
lwrist 10.7498
lhand -33.4934 15.4557
lfingers 7.12502
lthumb -6.69049 45.33
rfemur -30.9257 3.65921 15.4039
rtibia 34.0023
rfoot -16.1813 -20.374
rtoes -12.1815
lfemur 2.48619 -4.18487 -31.5272
ltibia 13.2586
lfoot -13.1835 6.05951
ltoes -9.97885
1668
root 0.946576 15.6873 -2.00398 4010.81 -96.1885 -4007.65
lowerback 5.47778 0.737716 -9.67168
upperback -2.06737 0.245292 0.227386
thorax -5.31913 0.446613 5.65562
lowerneck -16.9788 1.00634 1.42455
upperneck 21.6942 1.52301 -2.89059
head 9.71371 0.408646 -1.05736
rclavicle -1.07344e-014 2.28602e-014
rhumerus -37.5476 -32.1877 -69.2695
rradius 10.7474
rwrist 35.1029
rhand -29.219 -17.7572
rfingers 7.12502
rthumb -2.56319 -47.7215
lclavicle -1.07344e-014 2.28602e-014
lhumerus -18.7557 -12.1987 91.3313
lradius 33.8618
lwrist 10.7633
lhand -33.5728 15.3254
lfingers 7.12502
lthumb -6.76716 45.1972
rfemur -30.9357 4.41964 15.1588
rtibia 31.5039
rfoot -16.3373 -20.0327
rtoes -12.7227
lfemur 3.52243 -4.07288 -31.593
ltibia 11.8731
lfoot -12.7142 5.84095
ltoes -10.6744
1669
root 0.959181 15.6967 -2.01598 4012.09 -96.1511 -4008.63
lowerback 5.24624 0.738783 -9.69792
upperback -2.13228 0.263718 0.185914
thorax -5.25929 0.45468 5.62434
lowerneck -16.9734 0.957082 1.42797
upperneck 21.6397 1.45618 -2.89961
head 9.69183 0.378177 -1.0694
rclavicle -3.57812e-015 2.5842e-015
rhumerus -36.2223 -30.9546 -71.0535
rradius 11.0754
rwrist 33.326
rhand -29.2184 -17.8389
rfingers 7.12502
rthumb -2.56265 -47.8033
lclavicle -3.57812e-015 2.5842e-015
lhumerus -19.0924 -12.3704 91.3797
lradius 33.9602
lwrist 11.0683
lhand -33.6775 15.2141
lfingers 7.12502
lthumb -6.86829 45.0827
rfemur -30.9964 5.61628 14.7898
rtibia 29.1829
rfoot -16.8091 -20.1751
rtoes -13.0811
lfemur 4.57687 -3.89904 -31.5728
ltibia 10.3888
lfoot -12.237 5.46407
ltoes -11.672
1670
root 0.969934 15.7029 -2.02621 4013.1 -96.0808 -4009.32
lowerback 4.97823 0.730702 -9.66243
upperback -2.21731 0.279588 0.179268
thorax -5.19875 0.460939 5.59564
lowerneck -16.9379 0.904571 1.41235
upperneck 21.5708 1.39838 -2.94474
head 9.6597 0.346226 -1.08955
rclavicle -1.19271e-014 -6.16232e-015
rhumerus -34.8965 -29.4403 -72.8445
rradius 11.3969
rwrist 31.376
rhand -29.258 -17.7542
rfingers 7.12502
rthumb -2.60083 -47.718
lclavicle -1.19271e-014 -6.16232e-015
lhumerus -19.4599 -12.336 91.4766
lradius 33.9404
lwrist 10.978
lhand -33.6001 15.1672
lfingers 7.12502
lthumb -6.79349 45.0382
rfemur -31.1511 7.16249 14.3259
rtibia 27.0892
rfoot -17.3553 -20.9892
rtoes -13.5705
lfemur 5.63854 -3.78368 -31.5151
ltibia 8.86072
lfoot -11.6568 5.14018
ltoes -12.5084
1671
root 0.977785 15.7084 -2.04121 4014.52 -96.0545 -4010.49
lowerback 4.75592 0.730058 -9.73467
upperback -2.27142 0.293298 0.157683
thorax -5.13276 0.46797 5.61225
lowerneck -16.9154 0.843665 1.37307
upperneck 21.5094 1.32732 -2.95617
head 9.6319 0.309982 -1.09573
rclavicle 3.97569e-015 -8.34896e-015
rhumerus -33.5658 -27.7329 -74.7128
rradius 11.8714
rwrist 28.9974
rhand -29.2179 -17.7698
rfingers 7.12502
rthumb -2.56217 -47.7342
lclavicle 3.97569e-015 -8.34896e-015
lhumerus -19.8382 -12.347 91.5979
lradius 33.7998
lwrist 11.0473
lhand -33.7321 15.031
lfingers 7.12502
lthumb -6.92094 44.8979
rfemur -31.2959 8.6743 13.7956
rtibia 25.3232
rfoot -18.0419 -22.1208
rtoes -13.3728
lfemur 6.82358 -3.67033 -31.5002
ltibia 7.25067
lfoot -11.0623 4.80484
ltoes -13.1649
1672
root 0.983128 15.7175 -2.05679 4015.63 -96.001 -4011.39
lowerback 4.56751 0.743693 -9.73749
upperback -2.30684 0.328424 0.132406
thorax -5.06863 0.48273 5.58389
lowerneck -16.8961 0.800922 1.36434
upperneck 21.4473 1.27163 -2.95989
head 9.60498 0.284404 -1.10224
rclavicle -1.07344e-014 3.47873e-015
rhumerus -32.2182 -25.2678 -76.8728
rradius 12.5244
rwrist 26.0382
rhand -29.2414 -17.9211
rfingers 7.12502
rthumb -2.58487 -47.8852
lclavicle -1.07344e-014 3.47873e-015
lhumerus -20.2648 -12.3369 91.6991
lradius 33.6561
lwrist 11.0801
lhand -33.6855 14.9488
lfingers 7.12502
lthumb -6.87601 44.8171
rfemur -31.4425 10.3951 13.2287
rtibia 23.9332
rfoot -19.0403 -23.501
rtoes -12.9973
lfemur 8.1773 -3.54152 -31.4313
ltibia 5.41188
lfoot -10.3078 4.40602
ltoes -13.3933
1673
root 0.987252 15.7193 -2.07272 4017.15 -95.9894 -4012.69
lowerback 4.35996 0.752513 -9.74801
upperback -2.372 0.353963 0.0611057
thorax -5.02334 0.493621 5.51203
lowerneck -16.8973 0.765301 1.44939
upperneck 21.4656 1.21729 -3.03715
head 9.6113 0.257053 -1.15068
rclavicle 1.59028e-015 -1.17283e-014
rhumerus -31.0902 -23.1497 -78.7421
rradius 13.2257
rwrist 23.4334
rhand -29.1804 -17.8932
rfingers 7.12502
rthumb -2.52598 -47.858
lclavicle 1.59028e-015 -1.17283e-014
lhumerus -20.6948 -12.3554 91.7879
lradius 33.354
lwrist 11.3442
lhand -33.6052 14.9189
lfingers 7.12502
lthumb -6.79843 44.7897
rfemur -31.7295 11.8644 12.6711
rtibia 22.9627
rfoot -20.2206 -24.8453
rtoes -12.4892
lfemur 9.90078 -3.42994 -31.423
ltibia 2.92151
lfoot -9.2531 4.0373
ltoes -13.7955
